<svg width="273" height="292" viewBox="0 0 273 292" fill="none" xmlns="http://www.w3.org/2000/svg">
<path d="M210.6 263.023H225.086V292H210.6V263.023Z" fill="#313F53"/>
<path d="M210.6 263.023H225.086V292H210.6V263.023Z" fill="url(#paint0_linear_188_5)"/>
<path d="M100.487 201.052C81.53 182.091 58.473 169.194 34.5428 163.971V185.566C53.4526 189.701 71.6804 199.895 86.6622 214.879C100.591 228.81 110.378 245.536 115.008 263.023H136.618C130.885 240.521 118.39 218.958 100.487 201.052Z" fill="#313F53"/>
<path d="M100.487 201.052C81.53 182.091 58.473 169.194 34.5428 163.971V185.566C53.4526 189.701 71.6804 199.895 86.6622 214.879C100.591 228.81 110.378 245.536 115.008 263.023H136.618C130.885 240.521 118.39 218.958 100.487 201.052Z" fill="url(#paint1_linear_188_5)"/>
<path d="M75.8535 225.69C63.9738 213.808 49.5365 205.715 34.5428 202.42V224.015C44.5162 226.222 54.1241 231.612 62.0284 239.518C68.875 246.366 73.8286 254.487 76.4686 263.023H98.1274C94.3555 249.464 86.6769 236.516 75.8535 225.69Z" fill="#313F53"/>
<path d="M75.8535 225.69C63.9738 213.808 49.5365 205.715 34.5428 202.42V224.015C44.5162 226.222 54.1241 231.612 62.0284 239.518C68.875 246.366 73.8286 254.487 76.4686 263.023H98.1274C94.3555 249.464 86.6769 236.516 75.8535 225.69Z" fill="url(#paint2_linear_188_5)"/>
<path d="M34.5428 245.252V263.023L54.9659 263.023C53.4947 259.343 51.1998 255.941 48.3519 253.092C46.2644 251.005 43.8882 249.205 41.3146 247.819C39.1679 246.662 36.8897 245.786 34.5428 245.252Z" fill="#313F53"/>
<path d="M34.5428 245.252V263.023L54.9659 263.023C53.4947 259.343 51.1998 255.941 48.3519 253.092C46.2644 251.005 43.8882 249.205 41.3146 247.819C39.1679 246.662 36.8897 245.786 34.5428 245.252Z" fill="url(#paint3_linear_188_5)"/>
<path d="M270.628 0L0 44.9107L2.37207 57.5717L34.5428 52.233V125.569V147.167C40.8734 148.552 47.1526 150.4 53.335 152.687C60.7143 155.417 67.9557 158.774 74.982 162.718C87.9364 169.988 100.16 179.253 111.168 190.264C132.168 211.268 146.772 236.604 153.352 263.023H174.954H210.6H225.086L239.571 263.023V162.718H246.257V152.687H239.571V18.2085L273 12.661L270.628 0Z" fill="#313F53"/>
<path d="M270.628 0L0 44.9107L2.37207 57.5717L34.5428 52.233V125.569V147.167C40.8734 148.552 47.1526 150.4 53.335 152.687C60.7143 155.417 67.9557 158.774 74.982 162.718C87.9364 169.988 100.16 179.253 111.168 190.264C132.168 211.268 146.772 236.604 153.352 263.023H174.954H210.6H225.086L239.571 263.023V162.718H246.257V152.687H239.571V18.2085L273 12.661L270.628 0Z" fill="url(#paint4_linear_188_5)"/>
<defs>
<linearGradient id="paint0_linear_188_5" x1="273" y1="146" x2="0" y2="146" gradientUnits="userSpaceOnUse">
<stop stop-color="#10192C"/>
<stop offset="1" stop-color="#10192C" stop-opacity="0"/>
</linearGradient>
<linearGradient id="paint1_linear_188_5" x1="273" y1="146" x2="0" y2="146" gradientUnits="userSpaceOnUse">
<stop stop-color="#10192C"/>
<stop offset="1" stop-color="#10192C" stop-opacity="0"/>
</linearGradient>
<linearGradient id="paint2_linear_188_5" x1="273" y1="146" x2="0" y2="146" gradientUnits="userSpaceOnUse">
<stop stop-color="#10192C"/>
<stop offset="1" stop-color="#10192C" stop-opacity="0"/>
</linearGradient>
<linearGradient id="paint3_linear_188_5" x1="273" y1="146" x2="0" y2="146" gradientUnits="userSpaceOnUse">
<stop stop-color="#10192C"/>
<stop offset="1" stop-color="#10192C" stop-opacity="0"/>
</linearGradient>
<linearGradient id="paint4_linear_188_5" x1="273" y1="146" x2="0" y2="146" gradientUnits="userSpaceOnUse">
<stop stop-color="#10192C"/>
<stop offset="1" stop-color="#10192C" stop-opacity="0"/>
</linearGradient>
</defs>
</svg>
