<svg width="300" height="300" viewBox="0 0 300 300" fill="none" xmlns="http://www.w3.org/2000/svg">
<rect width="300" height="300" fill="#313F53"/>
<rect width="300" height="300" fill="url(#paint0_linear_187_18)"/>
<path d="M192.114 217.328H200.445V234H192.114V217.328Z" fill="white"/>
<path d="M128.789 181.673C117.887 170.764 104.627 163.344 90.8652 160.339V172.764C101.74 175.143 112.223 181.008 120.839 189.629C128.849 197.644 134.477 207.267 137.14 217.328H149.568C146.271 204.382 139.085 191.976 128.789 181.673Z" fill="white"/>
<path d="M114.623 195.849C107.791 189.013 99.4881 184.357 90.8652 182.461V194.885C96.6009 196.155 102.126 199.256 106.672 203.805C110.609 207.745 113.458 212.417 114.976 217.328H127.432C125.263 209.527 120.847 202.078 114.623 195.849Z" fill="white"/>
<path d="M90.8652 207.104V217.328L102.61 217.328C101.764 215.211 100.445 213.254 98.8067 211.615C97.6063 210.414 96.2397 209.379 94.7597 208.581C93.5251 207.915 92.2149 207.411 90.8652 207.104Z" fill="white"/>
<path d="M226.636 66L71 91.8391L72.3642 99.1234L90.8652 96.0518V138.245V150.671C94.506 151.468 98.1171 152.531 101.673 153.847C105.916 155.418 110.081 157.349 114.122 159.618C121.571 163.801 128.601 169.132 134.932 175.467C147.009 187.551 155.407 202.128 159.191 217.328H171.614H192.114H200.445L208.775 217.328V159.618H212.62V153.847H208.775V76.4761L228 73.2844L226.636 66Z" fill="white"/>
<defs>
<linearGradient id="paint0_linear_187_18" x1="300" y1="150" x2="0" y2="150" gradientUnits="userSpaceOnUse">
<stop stop-color="#10192C"/>
<stop offset="1" stop-color="#10192C" stop-opacity="0"/>
</linearGradient>
</defs>
</svg>
